<svg version="1.1" id="Layer_1" xmlns="http://www.w3.org/2000/svg" xmlns:xlink="http://www.w3.org/1999/xlink" x="0px" y="0px"
	 width="100%" viewBox="0 0 800 800" enable-background="new 0 0 800 800" xml:space="preserve">
<path fill="#0274B3" opacity="1.000000" stroke="none" 
	d="
M0.999996,743.000000 
	C1.000000,514.973145 1.000000,286.946289 1.424264,58.573864 
	C2.232393,56.552013 2.764353,54.893341 2.966519,53.195404 
	C3.296095,50.427406 2.847862,47.446156 3.703651,44.880363 
	C11.194829,22.420567 25.136147,6.882640 49.600773,2.866896 
	C50.154411,2.776019 50.537407,1.645543 51.000000,0.999999 
	C284.026855,1.000000 517.053711,1.000000 750.402588,1.401903 
	C757.399719,4.501789 764.340637,6.688584 770.699341,9.995132 
	C788.626160,19.317089 797.971191,34.357506 799.079773,54.565414 
	C799.144287,55.741848 800.333923,56.856564 801.000000,58.000000 
	C801.000000,286.026855 801.000000,514.053711 800.575684,742.426147 
	C799.768311,743.948975 799.258667,745.101562 799.023926,746.307678 
	C797.970093,751.723267 797.745667,757.432129 795.858704,762.530579 
	C788.274780,783.022644 773.480286,795.201111 751.900635,799.087769 
	C751.175781,799.218323 750.629517,800.340210 750.000000,801.000000 
	C517.306458,801.000000 284.612946,801.000000 51.598007,800.598633 
	C44.754055,797.582397 37.901150,795.574402 31.771227,792.238098 
	C13.745702,782.427368 3.716502,767.287537 2.917871,746.430542 
	C2.873214,745.264282 1.666066,744.142517 0.999996,743.000000 
M348.500305,301.425903 
	C336.885742,301.425903 325.271210,301.425903 313.435059,301.425903 
	C313.435059,428.126984 313.435059,554.163452 313.435059,680.483032 
	C352.462616,680.483032 391.190063,680.483032 430.542542,680.483032 
	C430.542542,678.309998 430.542542,676.359009 430.542542,674.408081 
	C430.542572,613.587952 430.352936,552.766785 430.693115,491.948517 
	C430.766357,478.857147 432.001770,465.657928 434.045624,452.720673 
	C436.635651,436.326324 442.754547,421.175323 455.884979,410.038788 
	C471.432526,396.852112 490.046906,394.485901 509.478912,395.922333 
	C532.884216,397.652435 548.416138,409.833740 556.163086,431.956360 
	C561.462036,447.088318 562.995667,462.832092 563.031738,478.693298 
	C563.180359,544.012085 563.119141,609.331360 563.135010,674.650452 
	C563.135437,676.567871 563.135071,678.485229 563.135071,680.379517 
	C602.981506,680.379517 642.020630,680.379517 681.224731,680.379517 
	C681.316467,679.030762 681.443054,678.049683 681.441345,677.068909 
	C681.310364,601.089478 681.530029,525.106812 680.836548,449.132446 
	C680.588440,421.946411 676.835083,395.015228 667.379578,369.192780 
	C656.573181,339.680695 638.077576,317.064575 608.673218,304.691803 
	C578.567810,292.023987 546.997681,289.175995 515.055359,294.435669 
	C478.264740,300.493591 448.879425,318.783539 429.233429,351.246521 
	C428.663147,352.188812 428.373108,353.300720 427.952393,354.333557 
	C427.308838,353.923706 426.665283,353.513885 426.021729,353.104065 
	C426.021729,336.099335 426.021729,319.094635 426.021729,301.425964 
	C400.058594,301.425964 374.779449,301.425964 348.500305,301.425903 
M238.866425,618.500000 
	C238.866425,512.970703 238.866425,407.441406 238.866425,301.855896 
	C199.228043,301.855896 160.364716,301.855896 121.595871,301.855896 
	C121.595871,428.311493 121.595871,554.334595 121.595871,680.348511 
	C160.827148,680.348511 199.693085,680.348511 238.866425,680.348511 
	C238.866425,659.787292 238.866425,639.643677 238.866425,618.500000 
M135.548874,232.954407 
	C150.542435,245.648270 167.784103,251.145493 187.379272,249.251175 
	C224.626114,245.650421 252.934433,211.042618 248.584488,174.375366 
	C243.964325,135.430389 209.125336,107.705193 171.225113,113.415436 
	C143.135483,117.647560 123.760704,133.631210 115.317001,160.641144 
	C106.692421,188.229645 113.935455,212.530899 135.548874,232.954407 
z"/>
<path fill="#000000" opacity="1.000000" stroke="none" 
	d="
M750.468628,801.000000 
	C750.629517,800.340210 751.175781,799.218323 751.900635,799.087769 
	C773.480286,795.201111 788.274780,783.022644 795.858704,762.530579 
	C797.745667,757.432129 797.970093,751.723267 799.023926,746.307678 
	C799.258667,745.101562 799.768311,743.948975 800.575684,742.885864 
	C801.000000,762.255432 801.000000,781.510803 801.000000,801.000000 
	C784.313171,801.000000 767.625244,801.000000 750.468628,801.000000 
z"/>
<path fill="#000000" opacity="1.000000" stroke="none" 
	d="
M0.999996,743.468628 
	C1.666066,744.142517 2.873214,745.264282 2.917871,746.430542 
	C3.716502,767.287537 13.745702,782.427368 31.771227,792.238098 
	C37.901150,795.574402 44.754055,797.582397 51.138306,800.598633 
	C34.401134,801.000000 17.802269,801.000000 1.000000,801.000000 
	C1.000000,781.979614 1.000000,762.958435 0.999996,743.468628 
z"/>
<path fill="#000000" opacity="1.000000" stroke="none" 
	d="
M801.000000,57.531342 
	C800.333923,56.856564 799.144287,55.741848 799.079773,54.565414 
	C797.971191,34.357506 788.626160,19.317089 770.699341,9.995132 
	C764.340637,6.688584 757.399719,4.501789 750.862305,1.401903 
	C767.598206,1.000000 784.196472,1.000000 801.000000,1.000000 
	C801.000000,19.687059 801.000000,38.374870 801.000000,57.531342 
z"/>
<path fill="#000000" opacity="1.000000" stroke="none" 
	d="
M50.531342,0.999999 
	C50.537407,1.645543 50.154411,2.776019 49.600773,2.866896 
	C25.136147,6.882640 11.194829,22.420567 3.703651,44.880363 
	C2.847862,47.446156 3.296095,50.427406 2.966519,53.195404 
	C2.764353,54.893341 2.232393,56.552013 1.424264,58.114159 
	C1.000000,39.078018 1.000000,20.156038 1.000000,1.000000 
	C17.353483,1.000000 33.708084,1.000000 50.531342,0.999999 
z"/>
<path fill="#FEFEFF" opacity="1.000000" stroke="none" 
	d="
M349.000305,301.425934 
	C374.779449,301.425964 400.058594,301.425964 426.021729,301.425964 
	C426.021729,319.094635 426.021729,336.099335 426.021729,353.104065 
	C426.665283,353.513885 427.308838,353.923706 427.952393,354.333557 
	C428.373108,353.300720 428.663147,352.188812 429.233429,351.246521 
	C448.879425,318.783539 478.264740,300.493591 515.055359,294.435669 
	C546.997681,289.175995 578.567810,292.023987 608.673218,304.691803 
	C638.077576,317.064575 656.573181,339.680695 667.379578,369.192780 
	C676.835083,395.015228 680.588440,421.946411 680.836548,449.132446 
	C681.530029,525.106812 681.310364,601.089478 681.441345,677.068909 
	C681.443054,678.049683 681.316467,679.030762 681.224731,680.379517 
	C642.020630,680.379517 602.981506,680.379517 563.135071,680.379517 
	C563.135071,678.485229 563.135437,676.567871 563.135010,674.650452 
	C563.119141,609.331360 563.180359,544.012085 563.031738,478.693298 
	C562.995667,462.832092 561.462036,447.088318 556.163086,431.956360 
	C548.416138,409.833740 532.884216,397.652435 509.478912,395.922333 
	C490.046906,394.485901 471.432526,396.852112 455.884979,410.038788 
	C442.754547,421.175323 436.635651,436.326324 434.045624,452.720673 
	C432.001770,465.657928 430.766357,478.857147 430.693115,491.948517 
	C430.352936,552.766785 430.542572,613.587952 430.542542,674.408081 
	C430.542542,676.359009 430.542542,678.309998 430.542542,680.483032 
	C391.190063,680.483032 352.462616,680.483032 313.435059,680.483032 
	C313.435059,554.163452 313.435059,428.126984 313.435059,301.425903 
	C325.271210,301.425903 336.885742,301.425903 349.000305,301.425934 
z"/>
<path fill="#FDFEFE" opacity="1.000000" stroke="none" 
	d="
M238.866425,619.000000 
	C238.866425,639.643677 238.866425,659.787292 238.866425,680.348511 
	C199.693085,680.348511 160.827148,680.348511 121.595871,680.348511 
	C121.595871,554.334595 121.595871,428.311493 121.595871,301.855896 
	C160.364716,301.855896 199.228043,301.855896 238.866425,301.855896 
	C238.866425,407.441406 238.866425,512.970703 238.866425,619.000000 
z"/>
<path fill="#FEFEFF" opacity="1.000000" stroke="none" 
	d="
M135.262741,232.746002 
	C113.935455,212.530899 106.692421,188.229645 115.317001,160.641144 
	C123.760704,133.631210 143.135483,117.647560 171.225113,113.415436 
	C209.125336,107.705193 243.964325,135.430389 248.584488,174.375366 
	C252.934433,211.042618 224.626114,245.650421 187.379272,249.251175 
	C167.784103,251.145493 150.542435,245.648270 135.262741,232.746002 
z"/>
</svg>